# File created by Blade
# Date/Time:  Tue Sep 30 19:07:05 2014
#---------------------------------------------------------
:version 1.10
:name HOM
:units
  mass 1.0
  length 1.000000
  angle deg
:documentation
     Acclaim Skeleton File
:root
   axis xyz
   order TX TY TZ RX RY RZ
   position 0.000000 0.000000 0.000000
   orientation 0 0 0
:bonedata
   begin
      id 1
      name Spine_dum
      direction 0.000000 1.000000 0.000000
      length 7.508948
      axis 0.0 0.0 0.0 xyz
   end
   begin
      id 2
      name LeftUpLeg_dum
      direction 1.000000 0.000000 0.000000
      length 3.000560
      axis 0.0 0.0 0.0 xyz
   end
   begin
      id 3
      name RightUpLeg_dum
      direction -1.000000 0.000000 0.000000
      length 3.000560
      axis 0.0 0.0 0.0 xyz
   end
   begin
      id 4
      name Spine
      direction 0.000000 1.000000 0.000000
      length 0.000000
      axis 0.0 0.0 0.0 xyz
      dof rx ry rz
   end
   begin
      id 5
      name Spine_dum1
      direction 0.000000 1.000000 0.000000
      length 13.861154
      axis 0.0 0.0 0.0 xyz
   end
   begin
      id 6
      name Spine_dum2
      direction 0.000000 1.000000 0.000000
      length 8.204781
      axis 0.0 0.0 0.0 xyz
   end
   begin
      id 7
      name Spine_dum3
      direction 0.000000 1.000000 0.000000
      length 8.204781
      axis 0.0 0.0 0.0 xyz
   end
   begin
      id 8
      name Head
      direction 0.000000 1.000000 0.000000
      length 4.527550
      axis 0.0 0.0 0.0 xyz
      dof rx ry rz
   end
   begin
      id 9
      name LeftShoulder
      direction 1.000000 0.000000 0.000000
      length 6.635956
      axis 0.0 0.0 -90.0 xyz
      dof rx ry rz
   end
   begin
      id 10
      name LeftArm
      direction 1.000000 0.000000 0.000000
      length 10.274218
      axis 0.0 0.0 -90.0 xyz
      dof rx ry rz
   end
   begin
      id 11
      name LeftForeArm
      direction 1.000000 0.000000 0.000000
      length 8.522147
      axis 0.0 0.0 -90.0 xyz
      dof ry rz rx
   end
   begin
      id 12
      name LeftHand
      direction 0.000000 0.000000 0.000000
      length 0.000000
      axis 0.0 0.0 -90.0 xyz
      dof rx ry rz
   end
   begin
      id 13
      name LeftHand_dum1
      direction 0.000000 0.000000 0.000000
      length 0.000000
      axis 0.0 0.0 -90.0 xyz
   end
   begin
      id 14
      name LeftHand_dum2
      direction 1.000000 0.000000 0.000000
      length 3.937000
      axis 0.0 0.0 -90.0 xyz
   end
   begin
      id 15
      name LeftHandThumb1
      direction 0.000000 0.000000 1.000000
      length 3.937000
      axis 0.0 0.0 -90.0 xyz
      dof rx rz ry
   end
   begin
      id 16
      name RightShoulder
      direction -1.000000 0.000000 0.000000
      length 6.635956
      axis 0.0 0.0 90.0 xyz
      dof rx ry rz
   end
   begin
      id 17
      name RightArm
      direction -1.000000 0.000000 0.000000
      length 10.274218
      axis 0.0 0.0 90.0 xyz
      dof rx ry rz
   end
   begin
      id 18
      name RightForeArm
      direction -1.000000 0.000000 0.000000
      length 8.522147
      axis 0.0 0.0 90.0 xyz
      dof ry rz rx
   end
   begin
      id 19
      name RightHand
      direction 0.000000 0.000000 0.000000
      length 0.000000
      axis 0.0 0.0 90.0 xyz
      dof rx ry rz
   end
   begin
      id 20
      name RightHand_dum1
      direction 0.000000 0.000000 0.000000
      length 0.000000
      axis 0.0 0.0 90.0 xyz
   end
   begin
      id 21
      name RightHand_dum2
      direction -1.000000 0.000000 0.000000
      length 3.937000
      axis 0.0 0.0 90.0 xyz
   end
   begin
      id 22
      name RightHandThumb1
      direction 0.000000 0.000000 1.000000
      length 3.937000
      axis 0.0 0.0 90.0 xyz
      dof rx rz ry
   end
   begin
      id 23
      name LeftUpLeg
      direction 0.000000 -1.000000 0.000000
      length 16.490845
      axis 0.0 0.0 0.0 xyz
      dof rx ry rz
   end
   begin
      id 24
      name LeftLeg
      direction 0.000000 -1.000000 0.000000
      length 14.556576
      axis 0.0 0.0 0.0 xyz
      dof rx ry rz
   end
   begin
      id 25
      name LeftFoot
      direction 0.000000 -0.258819 0.965926
      length 4.831116
      axis 15.0 0.0 0.0 xyz
      dof rx ry rz
   end
   begin
      id 26
      name LeftToeBase
      direction 0.000000 0.000000 1.000000
      length 2.952750
      axis 0.0 0.0 0.0 xyz
      dof rx ry rz
   end
   begin
      id 27
      name RightUpLeg
      direction 0.000000 -1.000000 0.000000
      length 16.490845
      axis 0.0 0.0 0.0 xyz
      dof rx ry rz
   end
   begin
      id 28
      name RightLeg
      direction 0.000000 -1.000000 0.000000
      length 14.556576
      axis 0.0 0.0 0.0 xyz
      dof rx ry rz
   end
   begin
      id 29
      name RightFoot
      direction 0.000000 -0.258819 0.965926
      length 4.831116
      axis 15.0 0.0 0.0 xyz
      dof rx ry rz
   end
   begin
      id 30
      name RightToeBase
      direction 0.000000 0.000000 1.000000
      length 2.952750
      axis 0.0 0.0 0.0 xyz
      dof rx ry rz
   end
:hierarchy
   begin
      root Spine_dum LeftUpLeg_dum RightUpLeg_dum
      Spine_dum Spine
      LeftUpLeg_dum LeftUpLeg
      RightUpLeg_dum RightUpLeg
      Spine Spine_dum1 Spine_dum2 Spine_dum3
      Spine_dum1 Head
      Spine_dum2 LeftShoulder
      Spine_dum3 RightShoulder
      LeftShoulder LeftArm
      LeftArm LeftForeArm
      LeftForeArm LeftHand
      LeftHand LeftHand_dum1 LeftHand_dum2
      LeftHand_dum1 LeftHandThumb1
      RightShoulder RightArm
      RightArm RightForeArm
      RightForeArm RightHand
      RightHand RightHand_dum1 RightHand_dum2
      RightHand_dum1 RightHandThumb1
      LeftUpLeg LeftLeg
      LeftLeg LeftFoot
      LeftFoot LeftToeBase
      RightUpLeg RightLeg
      RightLeg RightFoot
      RightFoot RightToeBase
   end

# File created by Blade
# Date/Time:  Thu Sep 25 19:26:26 2014
# Frame Rate: 120.000 fps
#------------------------------------------------------
:FULLY-SPECIFIED
:DEGREES
182
root 0.183374 31.595515 -10.178717 39.824997 -26.667001 9.114450
Spine -8.274970 3.850431 10.906086
Head -19.687964 -22.435756 14.586816
LeftShoulder 3.313580 6.170704 13.871014
LeftArm 43.222330 40.272630 -58.846855
LeftForeArm 3.957666 0.000000 25.117200
LeftHand -23.072300 -0.000000 -2.812418
LeftHandThumb1 -26.253704 0.000000 33.147579
RightShoulder -11.133694 19.622343 -20.478385
RightArm 2.294497 -28.569315 86.224567
RightForeArm -24.413211 -0.000000 17.345153
RightHand -5.384876 0.000000 2.466467
RightHandThumb1 -24.326973 -0.000000 -32.862282
LeftUpLeg -35.227390 19.611850 -9.383086
LeftLeg -3.462014 -0.000000 0.000000
LeftFoot -13.598861 17.054809 -36.810940
LeftToeBase 9.104366 -0.000000 -0.000000
RightUpLeg -51.687355 -17.360688 -16.561857
RightLeg -4.413455 -0.000000 0.000000
RightFoot 10.199450 3.045971 9.813469
RightToeBase -0.252195 -0.000000 0.000000
183
root 0.183931 31.587700 -10.278268 40.581686 -27.014126 9.260167
Spine -8.064369 3.637364 10.972753
Head -20.025009 -22.315346 14.581778
LeftShoulder 3.811025 5.636554 14.138428
LeftArm 43.556059 39.795329 -58.836741
LeftForeArm 4.229815 0.000000 25.084779
LeftHand -23.168237 -0.000000 -2.518253
LeftHandThumb1 -26.253704 0.000000 33.147579
RightShoulder -10.881032 19.899342 -20.539082
RightArm 2.897591 -28.582589 85.892641
RightForeArm -24.543296 -0.000000 17.437535
RightHand -5.214413 -0.000000 2.308358
RightHandThumb1 -24.326973 -0.000000 -32.862282
LeftUpLeg -36.233445 19.501112 -9.847943
LeftLeg -3.415750 -0.000000 0.000000
LeftFoot -13.685714 17.219710 -36.976143
LeftToeBase 9.007180 -0.000000 -0.000000
RightUpLeg -52.762111 -17.440908 -16.452386
RightLeg -4.530069 -0.000000 0.000000
RightFoot 10.454561 3.120183 9.717087
RightToeBase -0.237303 -0.000000 0.000000
184
root 0.178021 31.579568 -10.377468 41.325644 -27.307367 9.391552
Spine -7.828569 3.382243 11.087124
Head -20.359162 -22.129731 14.580273
LeftShoulder 4.262885 5.148582 14.342361
LeftArm 44.059749 39.401567 -58.525343
LeftForeArm 4.365589 -0.000000 25.180046
LeftHand -23.297533 -0.000000 -2.150168
LeftHandThumb1 -26.253704 0.000000 33.147579
RightShoulder -10.581349 20.246934 -20.583301
RightArm 3.408586 -28.584931 85.547915
RightForeArm -24.775609 0.000000 17.600346
RightHand -5.141725 -0.000000 2.081127
RightHandThumb1 -24.326973 -0.000000 -32.862282
LeftUpLeg -37.184503 19.329965 -10.207329
LeftLeg -3.400603 -0.000000 0.000000
LeftFoot -13.745986 17.440167 -37.065325
LeftToeBase 9.008067 -0.000000 -0.000000
RightUpLeg -53.816628 -17.558671 -16.271670
RightLeg -4.622397 -0.000000 0.000000
RightFoot 10.616826 3.273472 9.468610
RightToeBase 0.019936 -0.000000 -0.000000
185
root 0.171972 31.569916 -10.481033 42.099354 -27.557985 9.528309
Spine -7.636419 3.128142 11.208196
Head -20.676465 -22.009561 14.577809
LeftShoulder 4.672014 4.711113 14.544717
LeftArm 44.865878 39.125117 -57.897697
LeftForeArm 4.336578 -0.000000 25.236847
LeftHand -23.455192 -0.000000 -1.541550
LeftHandThumb1 -26.253704 0.000000 33.147579
RightShoulder -10.293489 20.523596 -20.613025
RightArm 4.070144 -28.958489 85.058045
RightForeArm -24.970655 -0.000000 17.696890
RightHand -5.075102 -0.000000 1.752072
RightHandThumb1 -24.326973 -0.000000 -32.862282
LeftUpLeg -38.214665 19.191167 -10.605873
LeftLeg -3.343794 -0.000000 0.000000
LeftFoot -13.749258 17.556530 -37.091318
LeftToeBase 8.998438 -0.000000 -0.000000
RightUpLeg -54.897020 -17.671737 -16.129262
RightLeg -4.671057 -0.000000 0.000000
RightFoot 10.795830 3.331061 9.398607
RightToeBase 0.003877 -0.000000 -0.000000
186
root 0.165226 31.561770 -10.578977 42.902677 -27.818294 9.660202
Spine -7.482188 2.879569 11.346823
Head -20.975842 -21.803128 14.526903
LeftShoulder 5.095514 4.251924 14.753485
LeftArm 45.544430 38.776914 -57.446423
LeftForeArm 4.463459 -0.000000 25.267987
LeftHand -23.510443 0.000000 -1.064837
LeftHandThumb1 -26.253704 0.000000 33.147579
RightShoulder -9.979443 20.759609 -20.668379
RightArm 4.746473 -28.945238 84.587518
RightForeArm -25.082020 -0.000000 17.830329
RightHand -4.882263 0.000000 1.716765
RightHandThumb1 -24.326973 -0.000000 -32.862282
LeftUpLeg -39.255560 19.019050 -10.991456
LeftLeg -3.281038 -0.000000 0.000000
LeftFoot -13.768485 17.720675 -37.111867
LeftToeBase 8.953712 -0.000000 -0.000000
RightUpLeg -55.987898 -17.786968 -15.974994
RightLeg -4.755539 -0.000000 0.000000
RightFoot 11.001617 3.375191 9.273889
RightToeBase 0.040399 -0.000000 -0.000000
